<?xml version="1.0" encoding="UTF-8"?>
<svg width="700pt" height="700pt" version="1.1" viewBox="0 0 700 700" xmlns="http://www.w3.org/2000/svg">
 <path d="m537.95 259.52-175-175c-3.2695-3.2031-7.668-5-12.25-5-4.5781 0-8.9766 1.7969-12.25 5l-175 175c-3.0234 3.2383-4.707 7.5-4.707 11.93-0.003907 4.4297 1.6719 8.6953 4.6875 11.938 3.0195 3.2422 7.1523 5.2188 11.57 5.5352h21.352v175c0 4.6406 1.8438 9.0898 5.125 12.375 3.2812 3.2812 7.7305 5.125 12.375 5.125h98v-117.43c0-4.6406 1.8438-9.0938 5.125-12.375s7.7305-5.125 12.375-5.125h42.352-0.003906c4.6406 0 9.0938 1.8438 12.375 5.125s5.125 7.7344 5.125 12.375v117.25h98c4.6406 0 9.0938-1.8438 12.375-5.125s5.125-7.7344 5.125-12.375v-175h22.227c4.3125-0.46484 8.2969-2.5156 11.184-5.75 2.8867-3.2383 4.4688-7.4336 4.4414-11.77-0.03125-4.3359-1.668-8.5078-4.6016-11.707z"/>
</svg>
