<svg xmlns="http://www.w3.org/2000/svg" viewBox="0 0 291.37 238.1"><title>signature</title><path d="M257.36,294.29c2.62-2.9,5.44-5.65,7.82-8.74A124,124,0,0,1,316,246.77c3.17-1.33,6.49-2.78,9.77-3.9A140.15,140.15,0,0,1,341,239.6s7.11-.72,15.41-.77a19.58,19.58,0,0,1,14,5.52c1.28,1.23,1.87,3.17,3.51,6.11-7,.52-12.25.81-17.49,1.33-6.61.66-13.2,1.46-19.79,2.27-4.06.51-5.9,3.23-6.84,6.94-5.34,20.93-10.86,41.81-16,62.78-1.45,5.89-2,12-2.77,18-.17,1.31.36,2.73.86,6l60.45-46.31.71.84c-6.75,6-13.38,12.23-20.28,18.09-10.39,8.82-20.93,17.46-31.52,26a46.79,46.79,0,0,1-8,5c-5.58,2.87-9.74,0-10-6.21-.7-14.22,4-27.47,6.92-41.05,2.15-9.9,4.15-19.84,6.19-29.77.92-4.46,1.78-8.93,2.87-14.4-2.43.45-3.93.4-5.11,1-24.09,12-43.11,29.71-57.44,52.34-5.58,8.82-10.29,18.18-15.37,27.31-1.72,3.09-3.4,7-7.79,4.53-3.63-2.06-2.77-5.54-1.55-9.23,6.64-20,13-40.14,19.36-60.24a13.74,13.74,0,0,0,0-3.21c-2,.52-3.57.79-5,1.29-29.32,10.1-57.71,7.37-85.26-6.21-8.73-4.3-11.34-10.4-8.89-20.8,3.58-15.2,7.43-30.33,11.13-45.51,3.81-15.66,7.34-31.4,11.5-47a55.66,55.66,0,0,1,6.84-15.21c2.37-3.71,6.67-2.79,7.77,1.53a24.66,24.66,0,0,1,.45,10.8q-5,23.9-10.74,47.63c-4,16.47-8.41,32.84-12.63,49.27-1.09,4.24.51,7.14,4.54,8.71,25.22,9.9,50.55,11.25,75.89.59a89.85,89.85,0,0,0,14.57-7.49c17.14-11.29,35.64-41.59,29.53-65.93-4-15.8-13.48-27.09-26.61-35.89-24.73-16.57-52.31-23.66-81.79-23.27-22.08.29-43,5.67-61,19-15.87,11.69-26.17,27.41-29.32,47-5,30.9,5,57.06,27.17,78.62a77.78,77.78,0,0,0,33.8,19.53c5.54,1.53,11.09,3,18.31,4.94,1.58.38-4.44,2.85-6,2.64-6.39-.87-12.88-1.73-19-3.66-15.66-4.95-29.19-13.45-39.89-26.08-8.8-10.39-15.48-22-18.84-35.21-2.11-8.3-5.38-16.77-5.2-25.09.51-22.72,8-43.24,24.09-60,15.58-16.13,34.9-25.06,56.75-28.93,7.48-1.32,15-3.18,22.54-3.33,22.72-.48,44.29,5.75,65.35,13.93A98.43,98.43,0,0,1,283,148c16.86,15.72,25.54,34.91,21.79,58-3.78,23.28-15.93,41.44-34.93,55.3-4.15,3-7.54,6.69-8.62,12.3-1.29,6.71-3.49,13.26-5.31,19.88Z" transform="translate(-82.55 -114.47)"/><path d="M278.71,174.11c.32,3,.84,4.53.59,6-3.05,18.18-6.13,36.35-9.42,54.48-1,5.71-4.82,9.55-10.58,12.87-.27-1.73-.76-2.91-.56-4,3.37-17.78,6.64-35.58,10.37-53.28C270.3,184.56,271.82,178.64,278.71,174.11Z" transform="translate(-82.55 -114.47)"/><path d="M325.31,237.26C329.52,220.15,328.84,202,339,187c4.87.28,6.31,2.49,5.67,5.74-2.55,13-5.06,26.1-8.11,39C335.35,236.89,330.27,236.81,325.31,237.26Z" transform="translate(-82.55 -114.47)"/></svg>